
        <svg xmlns="http://www.w3.org/2000/svg" xmlns:xlink="http://www.w3.org/1999/xlink" version="1.1" width="3196.72131147541" height="942.1838623192908" viewBox="0 0 3196.72131147541 942.1838623192908">
			
			<g transform="scale(9.836065573770492) translate(10, 10)">
				<defs id="SvgjsDefs3847"><linearGradient id="SvgjsLinearGradient3854"><stop id="SvgjsStop3855" stop-color="#7d141d" offset="0"/><stop id="SvgjsStop3856" stop-color="#ff1e27" offset="1"/></linearGradient></defs><g id="SvgjsG3848" featureKey="symbolFeature-0" transform="matrix(0.8184524181208119,0,0,0.8184524181208119,-13.340773790939593,-3.028271449328443)" fill="#000"><path xmlns="http://www.w3.org/2000/svg" d="M16.3,38.1c0,8.2,6.3,15.2,14.2,15.7c0,0,0.1,0,0.1,0h37.1c0,0,0.1,0,0.1,0c8.8-0.6,15.7-8.2,15.7-17.2  c0-7.8-5.3-14.7-12.5-16.7c-1.6-9.3-9.7-16.2-19.3-16.2c-7,0-13.4,3.7-16.9,9.7c-0.6-0.1-1.3-0.2-1.9-0.2c-6,0-10.9,4.9-10.9,10.9  c0,0.7,0.1,1.4,0.2,2.1C18.6,28.9,16.3,33.4,16.3,38.1z M25.9,28.9c0.9-0.5,1.3-1.6,0.9-2.6c-0.3-0.7-0.4-1.5-0.4-2.3  c0-3.6,3-6.6,6.6-6.6c0.8,0,1.5,0.1,2.2,0.4c1,0.4,2.2-0.1,2.7-1.1c2.5-5.4,8-8.8,13.9-8.8c8,0,14.5,6,15.3,13.9  c0.1,1,0.8,1.7,1.8,1.9c6,1,10.5,6.6,10.5,12.9c0,6.7-5.3,12.5-11.7,13h-37c-5.5-0.3-10.1-5.6-10.1-11.4  C20.6,34.3,22.6,30.8,25.9,28.9z M50,59.6c-1.2,0-2.1,1-2.1,2.1v21.6c-2.6,0.9-4.5,3.3-4.6,6.2c-0.1,3.7,2.8,6.8,6.5,6.8l0.2,0  c3.6,0,6.6-2.9,6.7-6.5c0-1.8-0.6-3.5-1.8-4.8c-0.8-0.8-1.7-1.4-2.7-1.7V61.7C52.1,60.5,51.2,59.6,50,59.6z M50,92.1L50,92.1  c-1.4,0-2.5-1.2-2.4-2.5c0-1.3,1.1-2.4,2.4-2.4l0.1,0c0.7,0,1.3,0.3,1.7,0.8c0.4,0.5,0.7,1.1,0.7,1.7C52.4,91,51.3,92.1,50,92.1z   M29.5,79.4h5.3c4,0,7.2-3.2,7.2-7.2V61.7c0-1.2-1-2.1-2.1-2.1c-1.2,0-2.1,1-2.1,2.1v10.4c0,1.7-1.3,3-3,3h-5.3  c-0.9-2.6-3.4-4.6-6.3-4.6c-3.7,0-6.7,3-6.7,6.7s3,6.7,6.7,6.7C26.1,83.9,28.6,82,29.5,79.4z M20.7,77.2c0-1.3,1.1-2.4,2.4-2.4  c1.3,0,2.4,1.1,2.4,2.4s-1.1,2.4-2.4,2.4C21.8,79.7,20.7,78.6,20.7,77.2z M60.1,59.6c-1.2,0-2.1,1-2.1,2.1v10.4c0,4,3.2,7.2,7.2,7.2  h5.3c0.9,2.6,3.4,4.6,6.3,4.6c3.7,0,6.7-3,6.7-6.7s-3-6.7-6.7-6.7c-2.9,0-5.4,1.9-6.3,4.6h-5.3c-1.7,0-3-1.3-3-3V61.7  C62.2,60.5,61.3,59.6,60.1,59.6z M76.8,74.8c1.3,0,2.4,1.1,2.4,2.4s-1.1,2.4-2.4,2.4s-2.4-1.1-2.4-2.4S75.5,74.8,76.8,74.8z"/></g><g id="SvgjsG3849" featureKey="nameFeature-0" transform="matrix(0.6681780961874881,0,0,0.6681780961874881,73.96900104974667,13.318086495472983)" fill="#000"><path d="M9.7461 40.37109 c-4.2773 0 -7.5391 -1.8164 -8.2031 -5.4492 l3.8086 -1.0742 c0.52734 2.2266 2.1875 3.3008 4.3945 3.3008 c1.6211 0 3.3789 -0.58594 3.3398 -2.4805 c-0.039063 -2.2266 -2.8906 -2.5 -6.0352 -3.5547 c-2.5391 -0.82031 -5 -1.9727 -5 -5.3906 c0 -3.9453 3.2617 -5.7227 7.3242 -5.7227 c3.7109 0 6.7969 1.5039 7.4805 5.1563 l-3.5547 0.83984 c-0.52734 -2.0703 -2.0898 -2.8906 -3.9063 -2.8906 c-1.6211 0 -3.2031 0.625 -3.2031 2.2461 c0 1.875 2.3047 2.2656 4.8047 2.9297 c3.0664 0.80078 6.4258 1.9727 6.4258 6.1328 c0 4.3555 -3.6328 5.957 -7.6758 5.957 z M39.94178125 29.844 l-0.058594 1.1328 l-14.941 0 c0.17578 3.9063 2.6953 5.7813 5.6836 5.7813 c2.1875 0 3.9648 -1.1133 4.8633 -3.0859 l4.1016 0.70313 c-1.3672 3.7891 -4.7656 5.9961 -8.9258 5.9961 c-6.0352 0 -10.137 -3.75 -10.137 -10.195 s4.1992 -10.215 10 -10.215 c5.4102 0 9.3945 3.1641 9.4141 9.8828 z M30.546781250000002 23.301 c-2.7539 0 -4.7852 1.3281 -5.4102 4.3164 l10.293 0 c-0.35156 -2.9102 -2.2852 -4.3164 -4.8828 -4.3164 z M49.35546875 40.37109 c-3.1836 0 -6.0547 -1.5234 -6.0547 -5.3516 c0 -4.1992 3.418 -5.5078 7.5195 -6.25 l2.9688 -0.54688 c1.2891 -0.25391 1.8164 -0.83984 1.8164 -1.7773 c0 -2.4219 -1.8945 -3.2227 -3.8477 -3.2227 c-2.1289 0 -3.8672 0.9375 -4.1602 3.457 l-4.043 -0.74219 c0.68359 -4.0625 3.6133 -5.9375 8.4766 -5.9375 c3.9258 0 7.8906 1.4063 7.8906 6.9336 l0 7.6172 c0 1.8555 0.48828 2.3828 1.8555 2.3828 l0.3125 0 l0 3.0664 l-2.1289 0 c-2.207 0 -3.5352 -0.78125 -3.9844 -2.5977 l-0.21484 0 c-1.5234 2.1484 -4.043 2.9688 -6.4063 2.9688 z M50.41016875 36.8359 c3.0859 0 5.4883 -2.2852 5.4883 -5.8789 l-5.0195 1.1133 c-2.0703 0.39063 -3.2227 1.0938 -3.2227 2.5781 c0 1.543 1.2109 2.1875 2.7539 2.1875 z M70.78121875 23.652 c0.95703 -1.9531 3.4766 -3.4961 6.3281 -3.5156 l0 4.1016 c-4.0039 0 -6.1523 1.4648 -6.1523 5.7422 l0 10.02 l-4.5117 0 l0 -19.648 l4.3359 0 l0 3.3008 z M89.25759375 40.35156 c-5.8984 0 -10.176 -4.0625 -10.176 -10.195 c0 -6.1133 4.2773 -10.176 10.176 -10.176 c4.668 0 8.2422 2.4805 9.3164 6.8555 l-4.1797 0.54688 c-0.76172 -2.5 -2.6953 -3.7891 -5.1758 -3.7891 c-3.2813 0 -5.6445 2.5977 -5.6445 6.5625 s2.3633 6.5625 5.6445 6.5625 c2.4805 0 4.4141 -1.2695 5.1758 -3.7695 l4.1797 0.52734 c-1.0742 4.375 -4.7266 6.875 -9.3164 6.875 z M113.75034375 19.98 c4.1602 0 6.8555 2.4219 6.8555 7.207 l0 12.813 l-4.5313 0 l0 -12.031 c0 -3.1836 -1.7773 -4.3164 -3.9063 -4.3164 c-2.3242 0 -4.5703 1.3086 -4.5898 5.0586 l0 11.289 l-4.4922 0 l0 -30 l4.4922 0 l0 12.813 c1.3281 -1.7773 3.4766 -2.832 6.1719 -2.832 z M142.90990625 16.309 l-10.82 0 l0 7.7148 l9.5703 0 l0 4.1211 l-9.5703 0 l0 7.6758 l10.82 0 l0 4.1797 l-15.547 0 l0 -27.852 l15.547 0 l0 4.1602 z M158.92596875 19.98 c4.3945 0 7.0703 2.4219 7.0703 6.7969 l0 13.223 l-4.5313 0 l0 -12.246 c0 -2.9688 -1.7969 -4.1016 -3.8672 -4.1016 c-2.4805 0 -4.6094 1.4063 -4.6289 5.0586 l0 11.289 l-4.4922 0 l0 -19.648 l4.4922 0 l0 2.3242 c1.3086 -1.6992 3.3984 -2.6953 5.957 -2.6953 z M185.8200625 20.352 l4.3359 0 l0 18.418 c0 7.168 -3.9063 10.527 -10 10.527 c-5.293 0 -8.3594 -2.3047 -9.8438 -6.0547 l3.7305 -1.6797 c1.1328 2.7539 2.9883 4.1406 5.9375 4.1406 c3.7891 0 5.6445 -2.4609 5.6445 -6.6406 l0 -2.9102 c-1.1719 1.8945 -3.6328 3.2227 -6.4063 3.2227 c-4.8828 0 -8.9648 -3.9258 -8.9648 -9.7266 s4.1016 -9.668 9.0039 -9.668 c2.8906 0 5.3125 1.4063 6.4453 3.457 z M180.3120625 35.6641 c3.2227 0 5.7227 -2.7148 5.7227 -6.0156 s-2.4805 -6.0352 -5.7227 -6.0352 c-3.2031 0 -5.7031 2.5586 -5.7031 6.0352 c0 3.4375 2.5391 6.0156 5.7031 6.0156 z M198.8086125 16.602 c-1.5234 0 -2.7734 -1.25 -2.7734 -2.7539 c0 -1.5234 1.25 -2.7539 2.7734 -2.7539 c1.4844 0 2.7539 1.2305 2.7539 2.7539 c0 1.5039 -1.2695 2.7539 -2.7539 2.7539 z M196.5039125 40 l0 -19.648 l4.5117 0 l0 19.648 l-4.5117 0 z M217.83221875 19.98 c4.3945 0 7.0703 2.4219 7.0703 6.7969 l0 13.223 l-4.5313 0 l0 -12.246 c0 -2.9688 -1.7969 -4.1016 -3.8672 -4.1016 c-2.4805 0 -4.6094 1.4063 -4.6289 5.0586 l0 11.289 l-4.4922 0 l0 -19.648 l4.4922 0 l0 2.3242 c1.3086 -1.6992 3.3984 -2.6953 5.957 -2.6953 z M248.7113125 29.844 l-0.058594 1.1328 l-14.941 0 c0.17578 3.9063 2.6953 5.7813 5.6836 5.7813 c2.1875 0 3.9648 -1.1133 4.8633 -3.0859 l4.1016 0.70313 c-1.3672 3.7891 -4.7656 5.9961 -8.9258 5.9961 c-6.0352 0 -10.137 -3.75 -10.137 -10.195 s4.1992 -10.215 10 -10.215 c5.4102 0 9.3945 3.1641 9.4141 9.8828 z M239.3163125 23.301 c-2.7539 0 -4.7852 1.3281 -5.4102 4.3164 l10.293 0 c-0.35156 -2.9102 -2.2852 -4.3164 -4.8828 -4.3164 z M269.1995 40 l-7.2266 -12.422 l-3.0078 0 l0 12.422 l-4.668 0 l0 -27.852 l9.668 0 c6.0352 0 8.6914 3.6133 8.6914 8.0859 c0 3.8867 -2.3047 6.5039 -5.9961 7.168 l8.0273 12.598 l-5.4883 0 z M258.9648 16.094 l0 8.0273 l4.3164 0 c3.418 0 4.8828 -1.6016 4.8828 -3.9844 c0 -2.3633 -1.4648 -4.043 -4.8828 -4.043 l-4.3164 0 z M296.85584375 29.844 l-0.058594 1.1328 l-14.941 0 c0.17578 3.9063 2.6953 5.7813 5.6836 5.7813 c2.1875 0 3.9648 -1.1133 4.8633 -3.0859 l4.1016 0.70313 c-1.3672 3.7891 -4.7656 5.9961 -8.9258 5.9961 c-6.0352 0 -10.137 -3.75 -10.137 -10.195 s4.1992 -10.215 10 -10.215 c5.4102 0 9.3945 3.1641 9.4141 9.8828 z M287.46084375 23.301 c-2.7539 0 -4.7852 1.3281 -5.4102 4.3164 l10.293 0 c-0.35156 -2.9102 -2.2852 -4.3164 -4.8828 -4.3164 z M312.59803125 19.98 c5.0977 0 9.2969 3.8672 9.2969 10.215 c0 6.3867 -4.1992 10.254 -9.2969 10.254 c-2.8125 0 -5.2734 -1.3086 -6.4648 -3.4375 l0 12.715 l-4.4922 0 l0 -29.375 l4.2969 0 l0.11719 3.2031 c1.1719 -2.2461 3.6719 -3.5742 6.543 -3.5742 z M311.62103125 36.6406 c3.1836 0 5.7813 -2.4219 5.7813 -6.4453 c0 -4.0039 -2.5977 -6.4063 -5.7813 -6.4063 c-3.2813 0 -5.8398 2.6563 -5.8398 6.4063 c0 3.7891 2.5586 6.4453 5.8398 6.4453 z M335.410625 40.37109 c-5.9375 0 -10.332 -3.8477 -10.332 -10.215 c0 -6.3086 4.3555 -10.176 10.332 -10.176 c5.9961 0 10.352 3.8672 10.352 10.176 c0 6.3672 -4.375 10.215 -10.352 10.215 z M335.370625 36.7383 c3.418 0 5.918 -2.5977 5.918 -6.582 c0 -3.9648 -2.5 -6.5625 -5.918 -6.5625 c-3.3594 0 -5.8203 2.5977 -5.8203 6.5625 c0 3.9844 2.4609 6.582 5.8203 6.582 z"/></g><g id="SvgjsG3850" featureKey="nameFeature-1" transform="matrix(1.15,0,0,1.15,75,57)" fill="#000"><path d=""/></g>
			</g>
		</svg>
	